<?xml version="1.0" encoding="UTF-8"?>
<svg id="Layer_2" data-name="Layer 2" xmlns="http://www.w3.org/2000/svg" viewBox="0 0 782.33 735.16">
  <defs>
    <style>
      .cls-1 {
        fill: #6d21ef;
      }

      .cls-2 {
        fill: #fff;
      }

      .cls-3 {
        fill: #0fdff3;
      }
    </style>
  </defs>
  <g>
    <polygon class="cls-1" points="449.52 273.72 320.48 497.23 316.17 489.78 281.12 429.08 229.35 339.37 233.78 331.69 250.9 302.04 263.77 279.77 286.3 240.76 314.53 289.65 291.93 328.74 319.53 376.71 342.28 337.73 379.05 274.82 295.89 129.86 177.54 129.86 210.5 187.14 255.34 187.14 283.56 236.03 169.68 236.03 141.46 187.14 73.66 69.72 331.74 69.72 449.52 273.72"/>
    <polygon class="cls-3" points="708.66 69.72 451.87 514.56 343.71 514.56 397.48 421.43 417.48 456.08 431.33 432.11 605.77 129.98 485.72 129.98 509.6 171.33 495.76 195.33 474.53 232.07 415.58 129.98 450.35 69.72 708.66 69.72"/>
  </g>
  <g>
    <g>
      <path class="cls-2" d="M94.03,594.11h21.89l14.36,49.73,14.46-49.73h19.02l-23.18,70.83h-23.08l-23.48-70.83Z"/>
      <path class="cls-2" d="M171.79,594.11h48.94v15.65h-28.73v12.18h22.88v14.46h-22.88v12.88h30.31v15.65h-50.52v-70.83Z"/>
      <path class="cls-2" d="M232.41,594.11h22.88l22.68,39.92v-39.92h17.73v70.83h-19.61l-25.85-44.48v44.48h-17.83v-70.83Z"/>
      <path class="cls-2" d="M322.95,609.76h-18.33v-15.65h57.06v15.65h-18.33v55.18h-20.41v-55.18Z"/>
      <path class="cls-2" d="M370.59,594.11h48.94v15.65h-28.73v12.18h22.88v14.46h-22.88v12.88h30.31v15.65h-50.52v-70.83Z"/>
      <path class="cls-2" d="M448.45,628.48l-20.21-34.37h23.08l11.09,21.1,10.9-21.1h20.8l-19.02,33.68,21.89,37.15h-23.18l-13.18-24.37-13.17,24.37h-20.9l21.89-36.45Z"/>
    </g>
    <g>
      <path class="cls-3" d="M509.65,665.44c-2.4,0-4.23-1.9-4.23-4.3s1.83-4.3,4.23-4.3,4.36,1.9,4.36,4.3-1.9,4.3-4.36,4.3Z"/>
      <path class="cls-3" d="M569.85,664.93l-6.89-11.56h-21.73l3.79-6.51h14.09l-10.23-17.18-20.85,35.25h-9.16l26.41-43.97c.95-1.58,2.15-2.59,3.92-2.59s2.91,1.01,3.85,2.59l26.47,43.97h-9.67Z"/>
      <path class="cls-3" d="M598.28,652.17v-7.77h18.45c5.62,0,8.97-3.54,8.97-8.72s-3.35-8.65-8.97-8.65h-24.32v37.9h-7.96v-45.93h32.28c10.61,0,16.8,6.38,16.8,16.42s-6.19,16.74-16.8,16.74h-18.45Z"/>
      <path class="cls-3" d="M653.05,652.17v-7.77h18.45c5.62,0,8.97-3.54,8.97-8.72s-3.35-8.65-8.97-8.65h-24.32v37.9h-7.96v-45.93h32.28c10.61,0,16.8,6.38,16.8,16.42s-6.19,16.74-16.8,16.74h-18.45Z"/>
    </g>
  </g>
</svg>