<?xml version="1.0" encoding="UTF-8"?>
<svg id="Layer_2" data-name="Layer 2" xmlns="http://www.w3.org/2000/svg" viewBox="0 0 860.21 594.45">
  <defs>
    <style>
      .cls-1 {
        fill: #6d21ef;
      }

      .cls-2 {
        fill: #0fdff3;
      }
    </style>
  </defs>
  <polygon class="cls-1" points="488.46 278.81 359.42 502.32 355.11 494.87 320.06 434.17 268.29 344.46 272.72 336.78 289.84 307.13 302.71 284.86 325.24 245.85 353.47 294.74 330.87 333.83 358.47 381.8 381.22 342.82 417.99 279.91 334.83 134.95 216.48 134.95 249.44 192.23 294.28 192.23 322.5 241.12 208.62 241.12 180.4 192.23 112.6 74.81 370.68 74.81 488.46 278.81"/>
  <polygon class="cls-2" points="747.6 74.81 490.81 519.65 382.65 519.65 436.42 426.52 456.42 461.17 470.27 437.2 644.71 135.07 524.66 135.07 548.54 176.42 534.7 200.42 513.47 237.16 454.52 135.07 489.29 74.81 747.6 74.81"/>
</svg>