<?xml version="1.0" encoding="UTF-8"?>
<svg id="Layer_2" data-name="Layer 2" xmlns="http://www.w3.org/2000/svg" viewBox="0 0 1348.08 348.63">
  <defs>
    <style>
      .cls-1 {
        fill: #6d21ef;
      }

      .cls-2 {
        fill: #fff;
      }

      .cls-3 {
        fill: #0fdff3;
      }
    </style>
  </defs>
  <g>
    <polygon class="cls-1" points="224.92 164.53 156.31 283.36 154.02 279.4 135.39 247.12 107.86 199.43 110.22 195.34 119.32 179.58 126.16 167.74 138.14 147 153.15 172.99 141.13 193.78 155.81 219.28 167.9 198.56 187.45 165.11 143.24 88.04 80.32 88.04 97.84 118.49 121.68 118.49 136.69 144.49 76.14 144.49 61.13 118.49 25.09 56.06 162.3 56.06 224.92 164.53"/>
    <polygon class="cls-3" points="362.7 56.06 226.17 292.57 168.66 292.57 197.25 243.05 207.89 261.48 215.25 248.74 307.99 88.1 244.17 88.1 256.86 110.09 249.5 122.85 238.21 142.38 206.87 88.1 225.36 56.06 362.7 56.06"/>
  </g>
  <g>
    <g>
      <path class="cls-2" d="M362.7,117.86h34.65l22.74,78.72,22.89-78.72h30.11l-36.69,112.12h-36.54l-37.16-112.12Z"/>
      <path class="cls-2" d="M485.78,117.86h77.46v24.77h-45.47v19.29h36.22v22.89h-36.22v20.38h47.98v24.77h-79.97v-112.12Z"/>
      <path class="cls-2" d="M581.75,117.86h36.22l35.91,63.19v-63.19h28.07v112.12h-31.05l-40.93-70.4v70.4h-28.23v-112.12Z"/>
      <path class="cls-2" d="M725.06,142.63h-29.01v-24.77h90.32v24.77h-29.01v87.34h-32.3v-87.34Z"/>
      <path class="cls-2" d="M800.48,117.86h77.46v24.77h-45.47v19.29h36.22v22.89h-36.22v20.38h47.98v24.77h-79.97v-112.12Z"/>
      <path class="cls-2" d="M923.73,172.27l-31.99-54.41h36.54l17.56,33.4,17.25-33.4h32.93l-30.11,53.31,34.65,58.8h-36.69l-20.86-38.57-20.85,38.57h-33.09l34.65-57.7Z"/>
    </g>
    <g>
      <path class="cls-3" d="M1020.59,230.77c-3.8,0-6.7-3-6.7-6.8s2.9-6.8,6.7-6.8,6.9,3,6.9,6.8-3,6.8-6.9,6.8Z"/>
      <path class="cls-3" d="M1115.89,229.97l-10.9-18.3h-34.4l6-10.3h22.3l-16.2-27.2-33,55.8h-14.5l41.8-69.6c1.5-2.5,3.4-4.1,6.2-4.1s4.6,1.6,6.1,4.1l41.9,69.6h-15.3Z"/>
      <path class="cls-3" d="M1160.89,209.77v-12.3h29.2c8.9,0,14.2-5.6,14.2-13.8s-5.3-13.7-14.2-13.7h-38.5v60h-12.6v-72.7h51.1c16.8,0,26.6,10.1,26.6,26s-9.8,26.5-26.6,26.5h-29.2Z"/>
      <path class="cls-3" d="M1247.59,209.77v-12.3h29.2c8.9,0,14.2-5.6,14.2-13.8s-5.3-13.7-14.2-13.7h-38.5v60h-12.6v-72.7h51.1c16.8,0,26.6,10.1,26.6,26s-9.8,26.5-26.6,26.5h-29.2Z"/>
    </g>
  </g>
</svg>